<?xml version="1.0" encoding="UTF-8" standalone="no" ?>
<!DOCTYPE svg PUBLIC "-//W3C//DTD SVG 1.1//EN" "http://www.w3.org/Graphics/SVG/1.1/DTD/svg11.dtd">
<svg xmlns="http://www.w3.org/2000/svg" xmlns:xlink="http://www.w3.org/1999/xlink" version="1.1" width="750" height="750" viewBox="0 0 750 750" xml:space="preserve">
<desc>Created with Fabric.js 3.6.6</desc>
<defs>
</defs>
<g transform="matrix(0 -1 1 0 378 378)"  >
<g style=""   >
		<g transform="matrix(33.33 0 0 33.33 4.13 -12.53)"  >
<path style="stroke: none; stroke-width: 1; stroke-dasharray: none; stroke-linecap: butt; stroke-dashoffset: 0; stroke-linejoin: miter; stroke-miterlimit: 4; fill: rgb(0,0,0); fill-rule: nonzero; opacity: 1;"  transform=" translate(-12.12, -11.62)" d="M 9.44631 3.25 C 8.31349 3.24998 7.38774 3.24996 6.65688 3.34822 C 5.89293 3.45093 5.2306 3.67321 4.7019 4.20191 C 4.17321 4.7306 3.95093 5.39294 3.84822 6.15689 C 3.74996 6.88775 3.74997 7.81348 3.75 8.94631 L 3.75 15.0061 C 3.28493 15.0196 2.98929 15.0628 2.75 15.201 C 2.52197 15.3326 2.33261 15.522 2.20096 15.75 C 2 16.0981 2 16.5654 2 17.5 C 2 18.4346 2 18.9019 2.20096 19.25 C 2.33261 19.478 2.52197 19.6674 2.75 19.799 C 3.09808 20 3.56538 20 4.5 20 C 5.43462 20 5.90192 20 6.25 19.799 C 6.47803 19.6674 6.66739 19.478 6.79904 19.25 C 7 18.9019 7 18.4346 7 17.5 C 7 16.5654 7 16.0981 6.79904 15.75 C 6.66739 15.522 6.47803 15.3326 6.25 15.201 C 6.01071 15.0628 5.71507 15.0196 5.25 15.0061 V 9 C 5.25 7.80029 5.25159 6.97595 5.33484 6.35676 C 5.41519 5.75914 5.55902 5.46611 5.76256 5.26257 C 5.9661 5.05903 6.25914 4.91519 6.85676 4.83484 C 7.47595 4.7516 8.30029 4.75 9.5 4.75 H 14.5 C 15.6997 4.75 16.524 4.7516 17.1432 4.83484 C 17.7409 4.91519 18.0339 5.05903 18.2374 5.26257 C 18.441 5.46611 18.5848 5.75914 18.6652 6.35676 C 18.7484 6.97595 18.75 7.80029 18.75 9 V 10.1893 L 18.0303 9.46967 C 17.7374 9.17678 17.2626 9.17678 16.9697 9.46967 C 16.6768 9.76257 16.6768 10.2374 16.9697 10.5303 L 18.9697 12.5303 C 19.2626 12.8232 19.7374 12.8232 20.0303 12.5303 L 22.0303 10.5303 C 22.3232 10.2374 22.3232 9.76257 22.0303 9.46967 C 21.7374 9.17678 21.2626 9.17678 20.9697 9.46967 L 20.25 10.1893 V 8.94632 C 20.25 7.81349 20.25 6.88775 20.1518 6.15689 C 20.0491 5.39294 19.8268 4.7306 19.2981 4.20191 C 18.7694 3.67321 18.1071 3.45093 17.3431 3.34822 C 16.6123 3.24996 15.6865 3.24998 14.5537 3.25 H 9.44631 Z" stroke-linecap="round" />
</g>
		<g transform="matrix(33.33 0 0 33.33 -0.01 183.32)"  >
<path style="stroke: none; stroke-width: 1; stroke-dasharray: none; stroke-linecap: butt; stroke-dashoffset: 0; stroke-linejoin: miter; stroke-miterlimit: 4; fill: rgb(0,0,0); fill-rule: nonzero; opacity: 1;"  transform=" translate(-12, -17.5)" d="M 9.70096 15.75 C 9.5 16.0981 9.5 16.5654 9.5 17.5 C 9.5 18.4346 9.5 18.9019 9.70096 19.25 C 9.83261 19.478 10.022 19.6674 10.25 19.799 C 10.5981 20 11.0654 20 12 20 C 12.9346 20 13.4019 20 13.75 19.799 C 13.978 19.6674 14.1674 19.478 14.299 19.25 C 14.5 18.9019 14.5 18.4346 14.5 17.5 C 14.5 16.5654 14.5 16.0981 14.299 15.75 C 14.1674 15.522 13.978 15.3326 13.75 15.201 C 13.4019 15 12.9346 15 12 15 C 11.0654 15 10.5981 15 10.25 15.201 C 10.022 15.3326 9.83261 15.522 9.70096 15.75 Z" stroke-linecap="round" />
</g>
		<g transform="matrix(33.33 0 0 33.33 249.99 183.32)"  >
<path style="stroke: none; stroke-width: 1; stroke-dasharray: none; stroke-linecap: butt; stroke-dashoffset: 0; stroke-linejoin: miter; stroke-miterlimit: 4; fill: rgb(0,0,0); fill-rule: nonzero; opacity: 1;"  transform=" translate(-19.5, -17.5)" d="M 17 17.5 C 17 16.5654 17 16.0981 17.201 15.75 C 17.3326 15.522 17.522 15.3326 17.75 15.201 C 18.0981 15 18.5654 15 19.5 15 C 20.4346 15 20.9019 15 21.25 15.201 C 21.478 15.3326 21.6674 15.522 21.799 15.75 C 22 16.0981 22 16.5654 22 17.5 C 22 18.4346 22 18.9019 21.799 19.25 C 21.6674 19.478 21.478 19.6674 21.25 19.799 C 20.9019 20 20.4346 20 19.5 20 C 18.5654 20 18.0981 20 17.75 19.799 C 17.522 19.6674 17.3326 19.478 17.201 19.25 C 17 18.9019 17 18.4346 17 17.5 Z" stroke-linecap="round" />
</g>
</g>
</g>
</svg>